<svg width="150" height="150" xmlns="http://www.w3.org/2000/svg">
 <!-- Created with Method Draw - http://github.com/duopixel/Method-Draw/ -->
 <g>
  <title>background</title>
  <rect fill="#fff" id="canvas_background" height="152" width="152" y="-1" x="-1"/>
 </g>
 <g>
  <title>Layer 1</title>
  <path stroke="null" transform="rotate(67 105.31529235839848,92.22130584716793) " id="svg_3" d="m146.72867,113.87997c-0.00335,-1.3591 -1.14347,-9.69207 -2.53453,-18.51779c-4.33756,-27.52025 -4.40136,-27.6417 -9.90856,-18.87039l-3.25828,5.18949l-9.52883,-5.13268c-12.60364,-6.78887 -27.64273,-9.3003 -41.46716,-6.92468c-5.86831,1.00847 -12.09504,2.64758 -13.83716,3.64245c-3.4588,1.97515 -3.23709,3.67139 2.27559,17.40953c3.02138,7.52963 3.31139,7.74423 8.53049,6.31266c8.88307,-2.43646 23.34725,-1.66903 30.33063,1.60928l6.54759,3.07384l-4.59593,5.11875c-2.52777,2.81538 -3.95972,5.53837 -3.18215,6.05114c0.7776,0.51279 10.23828,1.51222 21.02371,2.22089c16.18181,1.06331 19.60898,0.85666 19.60457,-1.18248l0.00001,-0.00001z" stroke-opacity="null" stroke-width="null" fill="#535F75"/>
  <path stroke="null" transform="rotate(21 59.425327301025355,49.3286018371582) " id="svg_5" d="m15.23521,70.70915c0.00357,-1.3591 1.22014,-9.69207 2.70447,-18.51779c4.62839,-27.52025 4.69647,-27.6417 10.57292,-18.87039l3.47675,5.18949l10.16773,-5.13268c13.44871,-6.78887 37.98572,-7.93315 44.2475,-6.92468c6.26178,1.00847 12.906,2.64758 14.76493,3.64245c3.69071,1.97515 3.45413,3.67139 -2.42817,17.40953c-3.22396,7.52963 -3.53342,7.74423 -9.10245,6.31266c-9.47867,-2.43646 -24.91267,-1.66903 -32.36428,1.60928l-6.9866,3.07384l4.90408,5.11875c2.69725,2.81538 4.22522,5.53837 3.39551,6.05114c-0.82974,0.51279 -10.92475,1.51222 -22.43334,2.22089c-17.26679,1.06331 -20.92375,0.85666 -20.91904,-1.18248l-0.00001,-0.00001z" stroke-opacity="null" stroke-width="null" fill="#535F75"/>
 </g>
</svg>